<?xml version="1.0" encoding="utf-8"?>
<!-- Generator: Adobe Illustrator 19.0.0, SVG Export Plug-In . SVG Version: 6.00 Build 0)  -->
<svg version="1.1" id="Layer_1" xmlns="http://www.w3.org/2000/svg" xmlns:xlink="http://www.w3.org/1999/xlink" x="0px" y="0px"
	 viewBox="0 0 329.7 81.1" style="enable-background:new 0 0 329.7 81.1;" xml:space="preserve">
<style type="text/css">
	.st0{fill:#3090B7;}
	.st1{fill:#363737;}
	.st2{fill:#6DC09E;}
</style>
<g id="XMLID_54_">
	<g id="XMLID_185_">
		<path id="XMLID_202_" class="st0" d="M7.3,26.7V5.5h1.5v12.9L21.2,5.5H23l-8.8,9.3l9.3,11.9h-1.7l-8.5-11l-4.3,4.5v6.5H7.3z"/>
		<path id="XMLID_200_" class="st0" d="M35.2,25.4c1.4,0,2.6-0.3,3.6-0.8c0.9-0.5,1.7-1.2,2.2-2.1c0.5-0.9,0.9-1.9,1.2-3
			c0.2-1.1,0.3-2.2,0.3-3.4V5.5H44v10.7c0,1.4-0.2,2.8-0.5,4.1c-0.3,1.3-0.8,2.4-1.5,3.4c-0.7,1-1.6,1.8-2.7,2.3
			c-1.1,0.6-2.5,0.9-4.1,0.9c-1.7,0-3.1-0.3-4.2-0.9c-1.1-0.6-2-1.4-2.7-2.4c-0.7-1-1.2-2.1-1.5-3.4c-0.3-1.3-0.4-2.6-0.4-3.9V5.5
			h1.5v10.7c0,1.2,0.1,2.3,0.3,3.4c0.2,1.1,0.6,2.1,1.2,3c0.6,0.9,1.3,1.6,2.3,2.1C32.6,25.2,33.8,25.4,35.2,25.4z"/>
		<path id="XMLID_198_" class="st0" d="M50.5,26.7V5.5H52v19.8h12.7v1.4H50.5z"/>
		<path id="XMLID_196_" class="st0" d="M80.4,6.9h-7.8v19.8h-1.5V6.9h-7.8V5.5h17.1V6.9z"/>
		<path id="XMLID_194_" class="st0" d="M93.5,25.4c1.4,0,2.6-0.3,3.6-0.8c0.9-0.5,1.7-1.2,2.2-2.1c0.5-0.9,0.9-1.9,1.2-3
			c0.2-1.1,0.3-2.2,0.3-3.4V5.5h1.5v10.7c0,1.4-0.2,2.8-0.5,4.1c-0.3,1.3-0.8,2.4-1.5,3.4c-0.7,1-1.6,1.8-2.7,2.3
			c-1.1,0.6-2.5,0.9-4.1,0.9c-1.7,0-3.1-0.3-4.2-0.9c-1.1-0.6-2-1.4-2.7-2.4c-0.7-1-1.2-2.1-1.5-3.4c-0.3-1.3-0.4-2.6-0.4-3.9V5.5
			h1.5v10.7c0,1.2,0.1,2.3,0.3,3.4c0.2,1.1,0.6,2.1,1.2,3c0.6,0.9,1.3,1.6,2.3,2.1C90.9,25.2,92,25.4,93.5,25.4z"/>
		<path id="XMLID_191_" class="st0" d="M108.8,26.7V5.5h8.8c0.9,0,1.7,0.2,2.5,0.6c0.8,0.4,1.4,0.9,2,1.5c0.5,0.6,1,1.3,1.3,2.1
			c0.3,0.8,0.5,1.6,0.5,2.4c0,0.8-0.1,1.5-0.4,2.3c-0.2,0.7-0.6,1.4-1,2c-0.4,0.6-1,1.1-1.6,1.4c-0.6,0.4-1.3,0.6-2,0.7l5.3,8.2
			h-1.8l-5.1-8h-6.9v8H108.8z M110.3,17.3h7.4c0.7,0,1.3-0.1,1.9-0.4c0.6-0.3,1-0.7,1.4-1.2c0.4-0.5,0.7-1,0.9-1.7
			c0.2-0.6,0.3-1.3,0.3-1.9c0-0.7-0.1-1.3-0.4-2c-0.2-0.6-0.6-1.2-1-1.7c-0.4-0.5-0.9-0.9-1.5-1.1c-0.6-0.3-1.2-0.4-1.8-0.4h-7.2
			V17.3z"/>
		<path id="XMLID_189_" class="st0" d="M130.5,8.4v18.3H129V5.5h1.2L145,24.2V5.5h1.5v21.2h-1.4L130.5,8.4z"/>
		<path id="XMLID_186_" class="st0" d="M161,26.8c-1.5,0-2.8-0.3-4-0.9c-1.2-0.6-2.3-1.4-3.1-2.4c-0.9-1-1.6-2.1-2-3.4
			c-0.5-1.3-0.7-2.6-0.7-4c0-1.4,0.3-2.8,0.8-4.1c0.5-1.3,1.2-2.4,2.1-3.4c0.9-1,1.9-1.8,3.2-2.4c1.2-0.6,2.5-0.9,3.9-0.9
			c1.5,0,2.8,0.3,4,0.9c1.2,0.6,2.3,1.4,3.1,2.5s1.5,2.2,2,3.5s0.7,2.6,0.7,3.9c0,1.4-0.3,2.8-0.8,4.1c-0.5,1.3-1.2,2.4-2.1,3.4
			c-0.9,1-1.9,1.8-3.2,2.4C163.7,26.6,162.4,26.8,161,26.8z M152.6,16.1c0,1.2,0.2,2.4,0.6,3.5c0.4,1.1,1,2.1,1.7,3
			c0.7,0.9,1.6,1.6,2.7,2.1c1,0.5,2.2,0.8,3.4,0.8c1.3,0,2.4-0.3,3.5-0.8c1-0.5,1.9-1.2,2.6-2.1c0.7-0.9,1.3-1.9,1.7-3
			c0.4-1.1,0.6-2.3,0.6-3.4c0-1.2-0.2-2.4-0.6-3.5c-0.4-1.1-1-2.1-1.7-3c-0.7-0.9-1.6-1.6-2.6-2.1c-1-0.5-2.1-0.8-3.3-0.8
			c-1.3,0-2.4,0.3-3.5,0.8c-1,0.5-1.9,1.2-2.7,2.1c-0.7,0.9-1.3,1.9-1.7,3C152.8,13.8,152.6,14.9,152.6,16.1z"/>
	</g>
	<g id="XMLID_171_">
		<path id="XMLID_182_" class="st0" d="M231,26.8c-1.5,0-2.8-0.3-4-0.9c-1.2-0.6-2.3-1.4-3.1-2.4c-0.9-1-1.6-2.1-2-3.4
			c-0.5-1.3-0.7-2.6-0.7-4c0-1.4,0.3-2.8,0.8-4.1c0.5-1.3,1.2-2.4,2.1-3.4c0.9-1,1.9-1.8,3.2-2.4c1.2-0.6,2.5-0.9,3.9-0.9
			c1.5,0,2.8,0.3,4,0.9s2.3,1.4,3.1,2.5s1.5,2.2,2,3.5s0.7,2.6,0.7,3.9c0,1.4-0.3,2.8-0.8,4.1c-0.5,1.3-1.2,2.4-2.1,3.4
			c-0.9,1-1.9,1.8-3.2,2.4C233.7,26.6,232.4,26.8,231,26.8z M222.6,16.1c0,1.2,0.2,2.4,0.6,3.5c0.4,1.1,1,2.1,1.7,3
			c0.7,0.9,1.6,1.6,2.7,2.1c1,0.5,2.2,0.8,3.4,0.8c1.3,0,2.4-0.3,3.5-0.8c1-0.5,1.9-1.2,2.6-2.1c0.7-0.9,1.3-1.9,1.7-3
			c0.4-1.1,0.6-2.3,0.6-3.4c0-1.2-0.2-2.4-0.6-3.5c-0.4-1.1-1-2.1-1.7-3c-0.7-0.9-1.6-1.6-2.6-2.1c-1-0.5-2.1-0.8-3.3-0.8
			c-1.3,0-2.4,0.3-3.5,0.8c-1,0.5-1.9,1.2-2.7,2.1c-0.7,0.9-1.3,1.9-1.7,3C222.8,13.8,222.6,14.9,222.6,16.1z"/>
		<path id="XMLID_180_" class="st0" d="M259.2,6.9h-7.8v19.8h-1.5V6.9h-7.8V5.5h17.1V6.9z"/>
		<path id="XMLID_177_" class="st0" d="M270.6,26.8c-1.5,0-2.8-0.3-4-0.9c-1.2-0.6-2.3-1.4-3.1-2.4c-0.9-1-1.6-2.1-2-3.4
			c-0.5-1.3-0.7-2.6-0.7-4c0-1.4,0.3-2.8,0.8-4.1c0.5-1.3,1.2-2.4,2.1-3.4c0.9-1,1.9-1.8,3.2-2.4c1.2-0.6,2.5-0.9,3.9-0.9
			c1.5,0,2.8,0.3,4,0.9c1.2,0.6,2.3,1.4,3.1,2.5c0.9,1,1.5,2.2,2,3.5s0.7,2.6,0.7,3.9c0,1.4-0.3,2.8-0.8,4.1
			c-0.5,1.3-1.2,2.4-2.1,3.4c-0.9,1-1.9,1.8-3.2,2.4C273.3,26.6,272,26.8,270.6,26.8z M262.2,16.1c0,1.2,0.2,2.4,0.6,3.5
			c0.4,1.1,1,2.1,1.7,3c0.7,0.9,1.6,1.6,2.7,2.1c1,0.5,2.2,0.8,3.4,0.8c1.3,0,2.4-0.3,3.4-0.8s1.9-1.2,2.6-2.1
			c0.7-0.9,1.3-1.9,1.7-3c0.4-1.1,0.6-2.3,0.6-3.4c0-1.2-0.2-2.4-0.6-3.5c-0.4-1.1-1-2.1-1.7-3C275.9,8.7,275,8,274,7.5
			c-1-0.5-2.1-0.8-3.3-0.8c-1.3,0-2.4,0.3-3.5,0.8s-1.9,1.2-2.7,2.1c-0.7,0.9-1.3,1.9-1.7,3C262.4,13.8,262.2,14.9,262.2,16.1z"/>
		<path id="XMLID_175_" class="st0" d="M283.7,26.7V5.5h1.5v12.9l12.4-12.9h1.8l-8.8,9.3l9.3,11.9H298l-8.5-11l-4.3,4.5v6.5H283.7z"
			/>
		<path id="XMLID_172_" class="st0" d="M312.2,5.5h1.3l9,21.2h-1.6l-3-7h-10.1l-3,7h-1.6L312.2,5.5z M317.5,18.5l-4.6-11.1
			l-4.7,11.1H317.5z"/>
	</g>
	<g id="XMLID_157_">
		<path id="XMLID_169_" class="st0" d="M242.6,54V32.8h1.5v12.9l12.4-12.9h1.8l-8.8,9.3l9.3,11.9H257l-8.5-11l-4.3,4.5V54H242.6z"/>
		<path id="XMLID_166_" class="st0" d="M263,54V32.8h8.8c0.9,0,1.7,0.2,2.5,0.6c0.8,0.4,1.4,0.9,2,1.5c0.5,0.6,1,1.3,1.3,2.1
			c0.3,0.8,0.5,1.6,0.5,2.4c0,0.8-0.1,1.5-0.4,2.3c-0.2,0.7-0.6,1.4-1,2c-0.4,0.6-1,1.1-1.6,1.4c-0.6,0.4-1.3,0.6-2,0.7l5.3,8.2
			h-1.8l-5.1-8h-6.9v8H263z M264.5,44.6h7.4c0.7,0,1.3-0.1,1.9-0.4c0.6-0.3,1-0.7,1.4-1.2c0.4-0.5,0.7-1,0.9-1.7
			c0.2-0.6,0.3-1.3,0.3-1.9c0-0.7-0.1-1.3-0.4-2c-0.2-0.6-0.6-1.2-1-1.7c-0.4-0.5-0.9-0.9-1.5-1.1c-0.6-0.3-1.2-0.4-1.8-0.4h-7.2
			V44.6z"/>
		<path id="XMLID_164_" class="st0" d="M283.3,54V32.8h1.5v12.9l12.4-12.9h1.8l-8.8,9.3l9.3,11.9h-1.7l-8.5-11l-4.3,4.5V54H283.3z"
			/>
		<path id="XMLID_161_" class="st0" d="M312.3,32.8h1.3l9,21.2h-1.6l-3-7h-10.1l-3,7h-1.6L312.3,32.8z M317.6,45.7l-4.6-11.1
			l-4.7,11.1H317.6z"/>
		<path id="XMLID_158_" class="st0" d="M38.6,32.8h1.3l9,21.2h-1.6l-3-7H34.2l-3,7h-1.6L38.6,32.8z M43.9,45.7l-4.6-11.1l-4.7,11.1
			H43.9z"/>
	</g>
	<g id="XMLID_141_">
		<path id="XMLID_155_" class="st0" d="M8.8,35.8v18.3H7.3V32.9h1.2l14.9,18.7V32.9h1.5v21.2h-1.4L8.8,35.8z"/>
		<path id="XMLID_153_" class="st0" d="M66.7,36.4c-1.4-1.5-3.3-2.3-5.8-2.3c-2.1,0-3.6,0.4-4.5,1.2c-0.9,0.8-1.4,1.8-1.4,3.2
			c0,0.7,0.1,1.2,0.4,1.7c0.2,0.4,0.6,0.8,1.1,1.1c0.5,0.3,1.2,0.6,1.9,0.8c0.8,0.2,1.7,0.4,2.8,0.7c1.1,0.2,2.2,0.5,3.1,0.8
			c0.9,0.3,1.7,0.7,2.4,1.1c0.6,0.4,1.1,1,1.5,1.6c0.3,0.6,0.5,1.4,0.5,2.4c0,0.9-0.2,1.8-0.6,2.4c-0.4,0.7-0.9,1.3-1.6,1.7
			c-0.7,0.5-1.5,0.8-2.4,1.1c-0.9,0.2-2,0.4-3.1,0.4c-3.3,0-6.1-1.1-8.4-3.2l0.8-1.2c0.9,0.9,2,1.7,3.3,2.2c1.3,0.5,2.7,0.8,4.4,0.8
			c1.9,0,3.3-0.3,4.3-1c1-0.7,1.6-1.7,1.6-3.1c0-0.7-0.1-1.3-0.4-1.8c-0.3-0.5-0.7-0.9-1.2-1.3c-0.5-0.4-1.2-0.7-2.1-0.9
			c-0.8-0.3-1.8-0.5-2.9-0.7c-1.1-0.2-2.1-0.5-3-0.8c-0.9-0.3-1.6-0.6-2.2-1c-0.6-0.4-1-0.9-1.3-1.5c-0.3-0.6-0.4-1.3-0.4-2.2
			c0-1,0.2-1.8,0.6-2.5c0.4-0.7,0.9-1.4,1.5-1.9c0.7-0.5,1.4-0.9,2.4-1.2c0.9-0.3,1.9-0.4,3-0.4c1.4,0,2.6,0.2,3.7,0.6
			c1.1,0.4,2.1,1,2.9,1.9L66.7,36.4z"/>
		<path id="XMLID_151_" class="st0" d="M74.1,54.1V32.9h1.5v19.8h12.7v1.4H74.1z"/>
		<path id="XMLID_149_" class="st0" d="M93,51.9c0.5,0.3,1.1,0.6,1.8,0.8c0.7,0.2,1.5,0.3,2.3,0.3c1.2,0,2.1-0.2,2.7-0.6
			c0.7-0.4,1.2-1,1.6-1.8c0.4-0.8,0.6-1.8,0.7-2.9c0.1-1.2,0.2-2.5,0.2-4V32.9h1.5v10.8c0,1.6-0.1,3.1-0.2,4.4
			c-0.1,1.3-0.4,2.5-0.9,3.4c-0.5,0.9-1.1,1.7-2,2.2c-0.9,0.5-2.1,0.8-3.6,0.8c-1.8,0-3.3-0.4-4.6-1.3L93,51.9z"/>
		<path id="XMLID_147_" class="st0" d="M125.3,52.7v1.4h-14.1V32.9H125v1.4h-12.3v8.3h10.8v1.3h-10.8v8.8H125.3z"/>
		<path id="XMLID_144_" class="st0" d="M131.3,54.1v-10h-1.9v-1.3h1.9v-9.9h7c1.7,0,3.1,0.3,4.4,0.8c1.3,0.6,2.3,1.3,3.2,2.3
			c0.8,1,1.5,2.1,1.9,3.4c0.4,1.3,0.6,2.7,0.6,4.1c0,1.6-0.2,3.1-0.7,4.4c-0.5,1.3-1.1,2.4-2,3.3c-0.9,0.9-1.9,1.6-3.2,2.2
			c-1.2,0.5-2.6,0.8-4.2,0.8H131.3z M146.9,43.5c0-1.3-0.2-2.6-0.6-3.7c-0.4-1.1-0.9-2.1-1.7-2.9c-0.7-0.8-1.6-1.5-2.7-1.9
			c-1.1-0.5-2.3-0.7-3.6-0.7h-5.5v8.5h5.3v1.3h-5.3v8.7h5.5c1.4,0,2.6-0.2,3.7-0.7c1.1-0.5,2-1.1,2.7-2c0.7-0.8,1.3-1.8,1.6-2.9
			C146.7,46,146.9,44.8,146.9,43.5z"/>
		<path id="XMLID_142_" class="st0" d="M168.8,52.7v1.4h-14.1V32.9h13.9v1.4h-12.3v8.3H167v1.3h-10.8v8.8H168.8z"/>
	</g>
	<g id="XMLID_77_">
		<path id="XMLID_139_" class="st1" d="M7.5,71.8V59.7h1.2v12.2H7.5z"/>
		<path id="XMLID_137_" class="st1" d="M16,72c-0.7,0-1.4-0.1-2-0.3s-1.2-0.6-1.7-1l0.5-0.8c0.5,0.4,1,0.7,1.5,0.9
			c0.5,0.2,1.1,0.3,1.7,0.3c0.7,0,1.3-0.1,1.7-0.4c0.4-0.3,0.6-0.7,0.6-1.2c0-0.3-0.1-0.5-0.2-0.6c-0.1-0.2-0.3-0.3-0.5-0.4
			c-0.2-0.1-0.5-0.2-0.8-0.3c-0.3-0.1-0.7-0.2-1.2-0.3c-0.5-0.1-1-0.3-1.3-0.4s-0.7-0.3-0.9-0.4c-0.2-0.2-0.4-0.4-0.5-0.6
			c-0.1-0.2-0.2-0.5-0.2-0.9c0-0.4,0.1-0.8,0.3-1.2c0.2-0.3,0.4-0.6,0.7-0.8c0.3-0.2,0.7-0.4,1.1-0.5c0.4-0.1,0.8-0.2,1.3-0.2
			c0.7,0,1.3,0.1,1.9,0.3c0.6,0.2,1,0.5,1.4,0.9l-0.6,0.7c-0.3-0.3-0.7-0.6-1.2-0.8c-0.5-0.2-1-0.3-1.5-0.3c-0.3,0-0.6,0-0.9,0.1
			c-0.3,0.1-0.5,0.2-0.7,0.3c-0.2,0.1-0.4,0.3-0.5,0.5c-0.1,0.2-0.2,0.5-0.2,0.7c0,0.2,0,0.4,0.1,0.6c0.1,0.1,0.2,0.3,0.4,0.4
			c0.2,0.1,0.4,0.2,0.7,0.3c0.3,0.1,0.6,0.2,1,0.3c0.6,0.1,1.1,0.3,1.5,0.4c0.4,0.1,0.8,0.3,1.1,0.5c0.3,0.2,0.5,0.4,0.7,0.7
			c0.1,0.3,0.2,0.6,0.2,1c0,0.8-0.3,1.5-0.9,2C17.9,71.8,17,72,16,72z"/>
		<path id="XMLID_135_" class="st1" d="M24.2,59.3h1.2v10.5c0,0.3,0.1,0.6,0.3,0.8c0.2,0.2,0.4,0.3,0.8,0.3c0.1,0,0.3,0,0.4-0.1
			c0.2,0,0.3-0.1,0.5-0.1l0.2,0.9c-0.2,0.1-0.5,0.2-0.8,0.2c-0.3,0.1-0.6,0.1-0.8,0.1c-0.5,0-1-0.2-1.3-0.5
			c-0.3-0.3-0.5-0.7-0.5-1.3V59.3z"/>
		<path id="XMLID_132_" class="st1" d="M33.9,72c-0.4,0-0.8-0.1-1.2-0.2c-0.4-0.1-0.7-0.3-0.9-0.6c-0.3-0.3-0.5-0.5-0.6-0.9
			c-0.1-0.3-0.2-0.7-0.2-1.1c0-0.4,0.1-0.7,0.3-1.1s0.4-0.6,0.8-0.9c0.3-0.2,0.7-0.4,1.2-0.6c0.5-0.1,1-0.2,1.5-0.2
			c0.5,0,0.9,0,1.4,0.1c0.5,0.1,0.9,0.2,1.3,0.3v-0.8c0-0.8-0.2-1.4-0.7-1.9c-0.4-0.5-1.1-0.7-1.9-0.7c-0.5,0-0.9,0.1-1.4,0.3
			c-0.5,0.2-1,0.4-1.5,0.8l-0.4-0.8c1.2-0.8,2.3-1.2,3.4-1.2c1.1,0,2,0.3,2.6,0.9c0.6,0.6,1,1.5,1,2.6v4c0,0.3,0.1,0.5,0.4,0.5v1
			c-0.2,0-0.3,0.1-0.4,0.1c-0.3,0-0.5-0.1-0.7-0.2c-0.2-0.1-0.3-0.4-0.3-0.6l0-0.7c-0.4,0.5-0.9,0.9-1.6,1.2
			C35.3,71.9,34.6,72,33.9,72z M34.2,71.1c0.6,0,1.2-0.1,1.7-0.3c0.5-0.2,0.9-0.5,1.2-0.9c0.1-0.1,0.2-0.2,0.2-0.3
			c0.1-0.1,0.1-0.2,0.1-0.3v-1.5c-0.4-0.1-0.8-0.3-1.2-0.3c-0.4-0.1-0.8-0.1-1.3-0.1c-0.8,0-1.5,0.2-2,0.5c-0.5,0.3-0.8,0.8-0.8,1.4
			c0,0.3,0.1,0.5,0.2,0.8c0.1,0.2,0.3,0.4,0.4,0.6c0.2,0.2,0.4,0.3,0.7,0.4S33.9,71.1,34.2,71.1z"/>
		<path id="XMLID_130_" class="st1" d="M51.3,71.8h-1.2v-5c0-1.1-0.2-1.8-0.5-2.3c-0.3-0.5-0.8-0.7-1.4-0.7c-0.3,0-0.7,0.1-1,0.2
			c-0.3,0.1-0.7,0.3-1,0.5c-0.3,0.2-0.6,0.5-0.8,0.8c-0.2,0.3-0.4,0.7-0.5,1v5.5h-1.2v-8.9h1.1v2c0.4-0.7,0.9-1.2,1.6-1.6
			c0.7-0.4,1.4-0.6,2.2-0.6c0.5,0,0.9,0.1,1.3,0.3c0.3,0.2,0.6,0.4,0.8,0.8c0.2,0.3,0.4,0.7,0.4,1.2c0.1,0.5,0.1,1,0.1,1.6V71.8z"/>
		<path id="XMLID_127_" class="st1" d="M60.3,72c-0.6,0-1.2-0.1-1.7-0.4c-0.5-0.3-1-0.6-1.4-1c-0.4-0.4-0.7-0.9-0.9-1.5
			C56.1,68.6,56,68,56,67.4c0-0.6,0.1-1.2,0.3-1.8c0.2-0.6,0.5-1.1,0.8-1.5c0.4-0.4,0.8-0.8,1.3-1c0.5-0.2,1-0.4,1.6-0.4
			c0.8,0,1.4,0.2,2,0.6c0.6,0.4,1,0.9,1.4,1.4v-5.5h1.2v11c0,0.3,0.1,0.5,0.4,0.5v1c-0.2,0-0.3,0.1-0.4,0.1c-0.3,0-0.5-0.1-0.7-0.3
			c-0.2-0.2-0.3-0.4-0.3-0.6v-0.9c-0.4,0.6-0.8,1-1.4,1.4C61.5,71.8,60.9,72,60.3,72z M60.5,71c0.3,0,0.6-0.1,0.9-0.2
			c0.3-0.1,0.6-0.3,0.9-0.5c0.3-0.2,0.5-0.4,0.7-0.7c0.2-0.3,0.3-0.6,0.4-0.9V66c-0.1-0.3-0.3-0.6-0.5-0.9c-0.2-0.3-0.5-0.5-0.7-0.7
			c-0.3-0.2-0.6-0.4-0.9-0.5c-0.3-0.1-0.6-0.2-0.9-0.2c-0.5,0-0.9,0.1-1.3,0.3c-0.4,0.2-0.7,0.5-1,0.8c-0.3,0.3-0.5,0.7-0.6,1.2
			c-0.1,0.4-0.2,0.9-0.2,1.3c0,0.5,0.1,0.9,0.3,1.4c0.2,0.4,0.4,0.8,0.7,1.1c0.3,0.3,0.6,0.6,1.1,0.8C59.6,70.9,60.1,71,60.5,71z"/>
		<path id="XMLID_124_" class="st1" d="M80.5,72c-0.7,0-1.2-0.1-1.8-0.4c-0.5-0.2-1-0.6-1.4-1c-0.4-0.4-0.7-0.9-0.9-1.5
			c-0.2-0.6-0.3-1.1-0.3-1.8c0-0.6,0.1-1.2,0.3-1.8c0.2-0.6,0.5-1.1,0.9-1.5c0.4-0.4,0.9-0.8,1.4-1c0.5-0.3,1.1-0.4,1.8-0.4
			s1.2,0.1,1.8,0.4c0.5,0.3,1,0.6,1.4,1c0.4,0.4,0.7,0.9,0.9,1.5c0.2,0.6,0.3,1.2,0.3,1.8c0,0.6-0.1,1.2-0.3,1.8
			c-0.2,0.6-0.5,1.1-0.9,1.5c-0.4,0.4-0.9,0.8-1.4,1C81.8,71.9,81.2,72,80.5,72z M77.3,67.4c0,0.5,0.1,1,0.3,1.4
			c0.2,0.4,0.4,0.8,0.7,1.1c0.3,0.3,0.6,0.6,1,0.8c0.4,0.2,0.8,0.3,1.3,0.3c0.4,0,0.9-0.1,1.3-0.3c0.4-0.2,0.7-0.4,1-0.8
			c0.3-0.3,0.5-0.7,0.7-1.1c0.2-0.4,0.3-0.9,0.3-1.4c0-0.5-0.1-1-0.3-1.4c-0.2-0.4-0.4-0.8-0.7-1.1c-0.3-0.3-0.6-0.6-1-0.8
			c-0.4-0.2-0.8-0.3-1.3-0.3c-0.4,0-0.9,0.1-1.3,0.3c-0.4,0.2-0.7,0.4-1,0.8c-0.3,0.3-0.5,0.7-0.7,1.2
			C77.4,66.4,77.3,66.9,77.3,67.4z"/>
		<path id="XMLID_122_" class="st1" d="M90,71.8v-8h-1.2v-0.9H90v-0.2c0-1.1,0.2-2,0.7-2.6c0.5-0.6,1.1-0.9,1.9-0.9
			c0.4,0,0.7,0.1,1,0.2s0.6,0.2,0.9,0.4l-0.4,0.8c-0.2-0.1-0.4-0.2-0.6-0.3c-0.2-0.1-0.5-0.1-0.7-0.1c-0.5,0-1,0.2-1.3,0.6
			c-0.3,0.4-0.4,1-0.4,1.8v0.3h2.5v0.9h-2.5v8H90z"/>
		<path id="XMLID_120_" class="st1" d="M105.4,71.8V59.7h1.2v7.1l6.7-7.1h1.3l-5,5.3l5.2,6.8h-1.3l-4.7-6.1l-2.3,2.4v3.7H105.4z"/>
		<path id="XMLID_118_" class="st1" d="M123.4,63.9c-0.8,0-1.5,0.2-2.1,0.7c-0.6,0.4-1,1-1.2,1.7v5.6H119v-8.9h1.1v2.1
			c0.3-0.7,0.8-1.2,1.3-1.6c0.6-0.4,1.2-0.6,1.8-0.6c0.1,0,0.2,0,0.2,0V63.9z"/>
		<path id="XMLID_116_" class="st1" d="M134.2,71.8l-3.3-4.6l-1.9,1.8v2.8h-1.2V59.3h1.2v8.5l5-4.9h1.3l-3.7,3.7l3.8,5.3H134.2z"/>
		<path id="XMLID_114_" class="st1" d="M146.6,65.7c0-0.7,0.1-1.5,0.4-2.2c0.3-0.7,0.6-1.4,1.1-1.9c0.5-0.6,1.1-1,1.8-1.4
			c0.7-0.4,1.5-0.5,2.5-0.5c1.1,0,2,0.2,2.8,0.7c0.8,0.5,1.3,1.1,1.7,1.9l-0.9,0.6c-0.2-0.4-0.4-0.7-0.7-1c-0.3-0.3-0.6-0.5-0.9-0.7
			c-0.3-0.2-0.7-0.3-1-0.4c-0.3-0.1-0.7-0.1-1-0.1c-0.7,0-1.4,0.1-1.9,0.4c-0.6,0.3-1,0.7-1.4,1.2c-0.4,0.5-0.7,1-0.9,1.6
			c-0.2,0.6-0.3,1.2-0.3,1.8c0,0.7,0.1,1.3,0.4,1.9c0.2,0.6,0.6,1.2,1,1.6c0.4,0.5,0.9,0.9,1.4,1.1c0.6,0.3,1.2,0.4,1.8,0.4
			c0.3,0,0.7,0,1.1-0.1c0.4-0.1,0.7-0.2,1-0.4c0.3-0.2,0.6-0.4,0.9-0.7c0.3-0.3,0.5-0.6,0.7-1l1,0.5c-0.2,0.5-0.5,0.9-0.8,1.2
			c-0.4,0.3-0.7,0.6-1.2,0.9c-0.4,0.2-0.9,0.4-1.4,0.5c-0.5,0.1-1,0.2-1.4,0.2c-0.8,0-1.6-0.2-2.3-0.5c-0.7-0.4-1.3-0.8-1.8-1.4
			c-0.5-0.6-0.9-1.3-1.2-2C146.7,67.2,146.6,66.5,146.6,65.7z"/>
		<path id="XMLID_112_" class="st1" d="M164.5,72c-1,0-1.7-0.3-2.2-1c-0.5-0.6-0.7-1.6-0.7-2.9v-5.2h1.2v5c0,2,0.7,3,2.1,3
			c0.3,0,0.7-0.1,1-0.2c0.3-0.1,0.6-0.3,0.9-0.5c0.3-0.2,0.5-0.5,0.8-0.8c0.2-0.3,0.4-0.6,0.5-1v-5.6h1.2v7.4c0,0.3,0.1,0.5,0.4,0.5
			v1c-0.1,0-0.2,0-0.3,0s-0.1,0-0.2,0c-0.3,0-0.5-0.1-0.7-0.3c-0.2-0.2-0.3-0.4-0.3-0.7v-1c-0.4,0.7-0.9,1.2-1.6,1.6
			C166,71.8,165.3,72,164.5,72z"/>
		<path id="XMLID_110_" class="st1" d="M174.4,59.3h1.2v10.5c0,0.3,0.1,0.6,0.3,0.8c0.2,0.2,0.4,0.3,0.8,0.3c0.1,0,0.3,0,0.4-0.1
			c0.2,0,0.3-0.1,0.5-0.1l0.2,0.9c-0.2,0.1-0.5,0.2-0.8,0.2c-0.3,0.1-0.6,0.1-0.8,0.1c-0.5,0-1-0.2-1.3-0.5
			c-0.3-0.3-0.5-0.7-0.5-1.3V59.3z"/>
		<path id="XMLID_108_" class="st1" d="M186.1,71.4c-0.1,0-0.2,0.1-0.3,0.1c-0.1,0.1-0.3,0.1-0.5,0.2c-0.2,0.1-0.4,0.1-0.6,0.2
			c-0.2,0-0.4,0.1-0.7,0.1c-0.3,0-0.5,0-0.7-0.1c-0.2-0.1-0.4-0.2-0.6-0.3c-0.2-0.1-0.3-0.3-0.4-0.5c-0.1-0.2-0.2-0.5-0.2-0.8v-6.4
			h-1.2v-0.9h1.2v-3h1.2v3h2.1v0.9h-2.1v6.1c0,0.3,0.1,0.6,0.4,0.7c0.2,0.2,0.5,0.2,0.7,0.2c0.3,0,0.6-0.1,0.9-0.2
			c0.3-0.1,0.4-0.2,0.5-0.2L186.1,71.4z"/>
		<path id="XMLID_106_" class="st1" d="M192.7,72c-1,0-1.7-0.3-2.2-1c-0.5-0.6-0.7-1.6-0.7-2.9v-5.2h1.2v5c0,2,0.7,3,2.1,3
			c0.3,0,0.7-0.1,1-0.2c0.3-0.1,0.6-0.3,0.9-0.5c0.3-0.2,0.5-0.5,0.8-0.8c0.2-0.3,0.4-0.6,0.5-1v-5.6h1.2v7.4c0,0.3,0.1,0.5,0.4,0.5
			v1c-0.1,0-0.2,0-0.3,0s-0.1,0-0.2,0c-0.3,0-0.5-0.1-0.7-0.3c-0.2-0.2-0.3-0.4-0.3-0.7v-1c-0.4,0.7-0.9,1.2-1.6,1.6
			C194.2,71.8,193.5,72,192.7,72z"/>
		<path id="XMLID_104_" class="st1" d="M207.4,63.9c-0.8,0-1.5,0.2-2.1,0.7c-0.6,0.4-1,1-1.2,1.7v5.6h-1.2v-8.9h1.1v2.1
			c0.3-0.7,0.8-1.2,1.3-1.6c0.6-0.4,1.2-0.6,1.8-0.6c0.1,0,0.2,0,0.2,0V63.9z"/>
		<path id="XMLID_101_" class="st1" d="M213.9,72c-0.4,0-0.8-0.1-1.2-0.2c-0.4-0.1-0.7-0.3-0.9-0.6c-0.3-0.3-0.5-0.5-0.6-0.9
			c-0.1-0.3-0.2-0.7-0.2-1.1c0-0.4,0.1-0.7,0.3-1.1c0.2-0.3,0.4-0.6,0.8-0.9c0.3-0.2,0.7-0.4,1.2-0.6c0.5-0.1,1-0.2,1.5-0.2
			c0.5,0,0.9,0,1.4,0.1c0.5,0.1,0.9,0.2,1.3,0.3v-0.8c0-0.8-0.2-1.4-0.7-1.9c-0.4-0.5-1.1-0.7-1.9-0.7c-0.5,0-0.9,0.1-1.4,0.3
			c-0.5,0.2-1,0.4-1.5,0.8l-0.4-0.8c1.2-0.8,2.3-1.2,3.4-1.2c1.1,0,2,0.3,2.6,0.9c0.6,0.6,1,1.5,1,2.6v4c0,0.3,0.1,0.5,0.4,0.5v1
			c-0.2,0-0.3,0.1-0.4,0.1c-0.3,0-0.5-0.1-0.7-0.2c-0.2-0.1-0.3-0.4-0.3-0.6l0-0.7c-0.4,0.5-0.9,0.9-1.6,1.2
			C215.3,71.9,214.6,72,213.9,72z M214.2,71.1c0.6,0,1.2-0.1,1.7-0.3c0.5-0.2,0.9-0.5,1.2-0.9c0.1-0.1,0.2-0.2,0.2-0.3
			c0.1-0.1,0.1-0.2,0.1-0.3v-1.5c-0.4-0.1-0.8-0.3-1.2-0.3c-0.4-0.1-0.8-0.1-1.3-0.1c-0.8,0-1.5,0.2-2,0.5c-0.5,0.3-0.8,0.8-0.8,1.4
			c0,0.3,0.1,0.5,0.2,0.8c0.1,0.2,0.3,0.4,0.4,0.6c0.2,0.2,0.4,0.3,0.7,0.4S213.9,71.1,214.2,71.1z"/>
		<path id="XMLID_99_" class="st1" d="M223.8,59.3h1.2v10.5c0,0.3,0.1,0.6,0.3,0.8c0.2,0.2,0.4,0.3,0.8,0.3c0.1,0,0.3,0,0.4-0.1
			c0.2,0,0.3-0.1,0.5-0.1l0.2,0.9c-0.2,0.1-0.5,0.2-0.8,0.2c-0.3,0.1-0.6,0.1-0.8,0.1c-0.5,0-1-0.2-1.3-0.5
			c-0.3-0.3-0.5-0.7-0.5-1.3V59.3z"/>
		<path id="XMLID_97_" class="st1" d="M249.3,59.7v12.2h-1.2v-5.7h-7.2v5.7h-1.2V59.7h1.2v5.4h7.2v-5.4H249.3z"/>
		<path id="XMLID_94_" class="st1" d="M257.4,72c-0.7,0-1.2-0.1-1.8-0.4c-0.5-0.2-1-0.6-1.4-1c-0.4-0.4-0.7-0.9-0.9-1.5
			c-0.2-0.6-0.3-1.2-0.3-1.8c0-0.6,0.1-1.2,0.3-1.8c0.2-0.6,0.5-1,0.9-1.5c0.4-0.4,0.9-0.7,1.4-1c0.5-0.2,1.1-0.4,1.8-0.4
			c0.7,0,1.2,0.1,1.8,0.4c0.5,0.2,1,0.6,1.4,1c0.4,0.4,0.7,0.9,0.9,1.5c0.2,0.5,0.3,1.1,0.3,1.7c0,0.1,0,0.2,0,0.3s0,0.2,0,0.2h-7.6
			c0,0.5,0.1,0.9,0.3,1.3c0.2,0.4,0.4,0.8,0.7,1.1c0.3,0.3,0.6,0.5,1,0.7c0.4,0.2,0.8,0.2,1.2,0.2c0.3,0,0.6,0,0.9-0.1
			c0.3-0.1,0.5-0.2,0.8-0.3c0.2-0.1,0.5-0.3,0.7-0.5c0.2-0.2,0.3-0.4,0.4-0.7l1,0.3c-0.1,0.3-0.3,0.6-0.6,0.9
			c-0.3,0.3-0.5,0.5-0.9,0.7c-0.3,0.2-0.7,0.4-1.1,0.5C258.2,72,257.8,72,257.4,72z M260.7,66.9c0-0.5-0.1-0.9-0.3-1.3
			c-0.2-0.4-0.4-0.7-0.7-1c-0.3-0.3-0.6-0.5-1-0.7c-0.4-0.2-0.8-0.2-1.2-0.2c-0.4,0-0.8,0.1-1.2,0.2c-0.4,0.2-0.7,0.4-1,0.7
			c-0.3,0.3-0.5,0.6-0.7,1c-0.2,0.4-0.3,0.8-0.3,1.3H260.7z"/>
		<path id="XMLID_92_" class="st1" d="M270.9,63.9c-0.8,0-1.5,0.2-2.1,0.7c-0.6,0.4-1,1-1.2,1.7v5.6h-1.2v-8.9h1.1v2.1
			c0.3-0.7,0.8-1.2,1.3-1.6c0.6-0.4,1.2-0.6,1.8-0.6c0.1,0,0.2,0,0.2,0V63.9z"/>
		<path id="XMLID_89_" class="st1" d="M275.2,61v-1.7h1.2V61H275.2z M275.2,71.8v-8.9h1.2v8.9H275.2z"/>
		<path id="XMLID_87_" class="st1" d="M286.1,71.4c-0.1,0-0.2,0.1-0.3,0.1c-0.1,0.1-0.3,0.1-0.5,0.2c-0.2,0.1-0.4,0.1-0.6,0.2
			c-0.2,0-0.4,0.1-0.7,0.1c-0.3,0-0.5,0-0.7-0.1c-0.2-0.1-0.4-0.2-0.6-0.3c-0.2-0.1-0.3-0.3-0.4-0.5c-0.1-0.2-0.2-0.5-0.2-0.8v-6.4
			h-1.2v-0.9h1.2v-3h1.2v3h2.1v0.9h-2.1v6.1c0,0.3,0.1,0.6,0.4,0.7c0.2,0.2,0.5,0.2,0.7,0.2c0.3,0,0.6-0.1,0.9-0.2
			c0.3-0.1,0.4-0.2,0.5-0.2L286.1,71.4z"/>
		<path id="XMLID_84_" class="st1" d="M292.6,72c-0.4,0-0.8-0.1-1.2-0.2c-0.4-0.1-0.7-0.3-0.9-0.6c-0.3-0.3-0.5-0.5-0.6-0.9
			c-0.1-0.3-0.2-0.7-0.2-1.1c0-0.4,0.1-0.7,0.3-1.1c0.2-0.3,0.4-0.6,0.8-0.9c0.3-0.2,0.7-0.4,1.2-0.6c0.5-0.1,1-0.2,1.5-0.2
			c0.5,0,0.9,0,1.4,0.1c0.5,0.1,0.9,0.2,1.3,0.3v-0.8c0-0.8-0.2-1.4-0.7-1.9c-0.4-0.5-1.1-0.7-1.9-0.7c-0.5,0-0.9,0.1-1.4,0.3
			c-0.5,0.2-1,0.4-1.5,0.8l-0.4-0.8c1.2-0.8,2.3-1.2,3.4-1.2c1.1,0,2,0.3,2.6,0.9c0.6,0.6,1,1.5,1,2.6v4c0,0.3,0.1,0.5,0.4,0.5v1
			c-0.2,0-0.3,0.1-0.4,0.1c-0.3,0-0.5-0.1-0.7-0.2c-0.2-0.1-0.3-0.4-0.3-0.6l0-0.7c-0.4,0.5-0.9,0.9-1.6,1.2
			C294,71.9,293.3,72,292.6,72z M292.9,71.1c0.6,0,1.2-0.1,1.7-0.3c0.5-0.2,0.9-0.5,1.2-0.9c0.1-0.1,0.2-0.2,0.2-0.3
			c0.1-0.1,0.1-0.2,0.1-0.3v-1.5c-0.4-0.1-0.8-0.3-1.2-0.3c-0.4-0.1-0.8-0.1-1.3-0.1c-0.8,0-1.5,0.2-2,0.5c-0.5,0.3-0.8,0.8-0.8,1.4
			c0,0.3,0.1,0.5,0.2,0.8c0.1,0.2,0.3,0.4,0.4,0.6c0.2,0.2,0.4,0.3,0.7,0.4S292.6,71.1,292.9,71.1z"/>
		<path id="XMLID_81_" class="st1" d="M306.1,72c-0.6,0-1.2-0.1-1.7-0.4c-0.5-0.3-0.9-0.6-1.3-1c-0.4-0.4-0.7-0.9-0.9-1.5
			s-0.3-1.1-0.3-1.7c0-0.6,0.1-1.2,0.3-1.8c0.2-0.6,0.5-1.1,0.8-1.5c0.4-0.4,0.8-0.8,1.3-1c0.5-0.3,1.1-0.4,1.7-0.4
			c0.8,0,1.4,0.2,2,0.6c0.6,0.4,1,0.9,1.4,1.4v-1.9h1v9c0,0.6-0.1,1.2-0.4,1.6c-0.2,0.5-0.5,0.9-0.9,1.2c-0.4,0.3-0.9,0.6-1.4,0.7
			c-0.5,0.2-1.1,0.2-1.7,0.2c-1,0-1.9-0.2-2.5-0.5c-0.6-0.4-1.1-0.9-1.5-1.5l0.7-0.6c0.4,0.6,0.8,1,1.4,1.3c0.6,0.3,1.2,0.4,1.9,0.4
			c0.4,0,0.8-0.1,1.2-0.2c0.4-0.1,0.7-0.3,1-0.5c0.3-0.2,0.5-0.5,0.7-0.9c0.2-0.4,0.3-0.8,0.3-1.3v-1.8c-0.3,0.6-0.8,1-1.4,1.4
			C307.4,71.8,306.7,72,306.1,72z M306.4,71c0.3,0,0.7-0.1,1-0.2c0.3-0.1,0.6-0.3,0.9-0.5c0.3-0.2,0.5-0.4,0.7-0.7
			c0.2-0.3,0.3-0.5,0.4-0.8V66c-0.1-0.3-0.3-0.6-0.5-0.9c-0.2-0.3-0.5-0.5-0.7-0.7c-0.3-0.2-0.6-0.3-0.9-0.5c-0.3-0.1-0.6-0.2-1-0.2
			c-0.5,0-1,0.1-1.3,0.3c-0.4,0.2-0.7,0.5-1,0.8c-0.3,0.3-0.5,0.7-0.6,1.2c-0.1,0.4-0.2,0.9-0.2,1.3c0,0.5,0.1,0.9,0.3,1.4
			c0.2,0.4,0.4,0.8,0.7,1.1c0.3,0.3,0.7,0.6,1.1,0.8C305.5,70.9,305.9,71,306.4,71z"/>
		<path id="XMLID_78_" class="st1" d="M319.3,72c-0.7,0-1.2-0.1-1.8-0.4c-0.5-0.2-1-0.6-1.4-1c-0.4-0.4-0.7-0.9-0.9-1.5
			c-0.2-0.6-0.3-1.2-0.3-1.8c0-0.6,0.1-1.2,0.3-1.8c0.2-0.6,0.5-1,0.9-1.5c0.4-0.4,0.9-0.7,1.4-1c0.5-0.2,1.1-0.4,1.8-0.4
			c0.7,0,1.2,0.1,1.8,0.4c0.5,0.2,1,0.6,1.4,1c0.4,0.4,0.7,0.9,0.9,1.5c0.2,0.5,0.3,1.1,0.3,1.7c0,0.1,0,0.2,0,0.3s0,0.2,0,0.2h-7.6
			c0,0.5,0.1,0.9,0.3,1.3c0.2,0.4,0.4,0.8,0.7,1.1c0.3,0.3,0.6,0.5,1,0.7c0.4,0.2,0.8,0.2,1.2,0.2c0.3,0,0.6,0,0.9-0.1
			s0.5-0.2,0.8-0.3c0.2-0.1,0.5-0.3,0.7-0.5c0.2-0.2,0.3-0.4,0.4-0.7l1,0.3c-0.1,0.3-0.3,0.6-0.6,0.9c-0.3,0.3-0.5,0.5-0.9,0.7
			c-0.3,0.2-0.7,0.4-1.1,0.5C320.2,72,319.8,72,319.3,72z M322.6,66.9c0-0.5-0.1-0.9-0.3-1.3c-0.2-0.4-0.4-0.7-0.7-1
			c-0.3-0.3-0.6-0.5-1-0.7c-0.4-0.2-0.8-0.2-1.2-0.2c-0.4,0-0.8,0.1-1.2,0.2c-0.4,0.2-0.7,0.4-1,0.7c-0.3,0.3-0.5,0.6-0.7,1
			c-0.2,0.4-0.3,0.8-0.3,1.3H322.6z"/>
	</g>
	<g id="XMLID_55_">
		<g id="XMLID_56_">
			<path id="XMLID_57_" class="st2" d="M214.4,55c-0.1,0-0.2,0-0.3-0.1c0,0,0,0,0,0c-1.1,0-2.2-0.5-3.1-0.9c0,0-0.1,0-0.1,0
				c-0.1,0-0.2,0-0.3,0l-0.1,0c-0.3,0-0.6-0.3-0.6-0.6c0-0.1-0.2-0.3-0.2-0.3l0,0c-0.2,0-0.5,0-0.7-0.1c-0.3-0.1-0.7-0.2-0.9-0.6
				c-0.1-0.2,0-0.5,0.1-0.8c-0.5-0.8-1.1-1.2-1.9-1.2c0,0,0,0,0,0c-0.1,0-0.2,0.1-0.4,0.1c-0.1,0-0.2,0.1-0.2,0.1
				c-0.6,0.3-1.1,0-1.4-0.3c-0.5-0.1-0.8-0.5-1-0.7c-0.1-0.1-0.1-0.2-0.2-0.2c-0.3-0.2-0.6-0.3-0.9-0.5c-0.1-0.1-0.3-0.1-0.4-0.2
				c0,0-0.1,0-0.1,0c-0.1,0-0.3-0.1-0.4-0.2c-0.5-0.4-0.6-0.8-0.6-1.1c0-0.3,0.1-0.7,0.6-1c0.1-0.1,0.3-0.2,0.4-0.2
				c0.1,0,0.2-0.1,0.2-0.1c0-0.1,0-0.2,0-0.3c-0.1-0.5-0.1-1-0.3-1.4c-0.1-0.3-0.2-0.6-0.2-0.9c-0.1,0-0.1,0-0.2,0
				c-0.7-0.2-1.4-0.5-2.1-0.8c-0.2-0.1-0.5-0.2-0.7-0.3c-0.3-0.1-0.5-0.2-0.8-0.3c-0.1,0.4-0.4,0.6-0.5,0.7
				c-0.1,0.1-0.1,0.1-0.2,0.2c-0.1,0.1-0.3,0.3-0.4,0.4c-0.3,0.2-0.6,0.3-1,0.3c-0.2,0-0.4,0-0.7-0.1c-0.2,0-0.4-0.1-0.6-0.1
				c-0.7,0.1-1.2-0.2-1.7-0.5c0,0-0.1,0.1-0.1,0.1c-0.2,0.1-0.4,0-0.6-0.1l-1.3-0.8c-0.1,0.1-0.3,0.3-0.5,0.3
				c-0.4,0.1-0.9-0.1-1.3-0.7c-0.1,0-0.3,0-0.4,0c-0.4-0.1-0.5-0.5-0.6-0.6c0,0,0-0.1,0-0.1c0,0,0,0,0,0c-0.1-0.1-0.2-0.2-0.3-0.3
				c-0.3-0.2-0.5-0.4-0.8-0.7c-0.1-0.2-0.2-0.3-0.2-0.5l-0.2,0c-0.2-0.1-0.4-0.2-0.5-0.5c-0.4-0.1-0.7-0.4-0.9-0.6
				c-0.1-0.1-0.2-0.2-0.3-0.4c-0.2-0.2-0.4-0.4-0.6-0.7c-0.1-0.1-0.1-0.2-0.2-0.3c0-0.1-0.1-0.2-0.1-0.2c-0.1-0.1-0.2-0.2-0.2-0.4
				c-0.7-0.2-1.2-0.9-1.4-1.8c-0.2-0.7-0.3-1.5-0.2-2.5c0-0.9,0.6-1.6,1.5-1.8c0.6-0.2,1.3-0.3,2-0.3c0.4,0,0.5-0.1,0.5-0.1
				c0,0,0-0.1-0.1-0.4c-0.1-0.1-0.1-0.3-0.2-0.4c-0.1-0.2-0.2-0.4-0.3-0.7c-0.2-0.7-0.1-1.3,0.4-1.7c0.1-0.1,0.2-0.2,0.3-0.4
				l0.1-0.1c0.1-0.1,0.2-0.2,0.3-0.3l0.1-0.1c0.2-0.2,0.4-0.3,0.7-0.2c0.2,0.1,0.3,0.1,0.5,0.2c0.4,0.1,0.8,0.2,1.1,0.4
				c0.4,0.2,0.6,0.5,0.8,0.7c0.2,0.4,0.7,0.5,1,0.3c0.1-0.1,0.2-0.1,0.4-0.2c0.1-0.1,0.3-0.1,0.4-0.2c0.1-0.1,0.2-0.2,0.2-0.3
				c0.1-0.5,0.1-1.1,0.1-1.6l0-0.5c0-0.1,0-0.1,0-0.2c0-0.5,0-0.5-0.2-0.6c-0.2-0.1-0.4-0.3-0.5-0.5c0-0.3,0.1-0.5,0.3-0.6l0.5-0.3
				c0.1-0.1,0.3-0.1,0.4-0.1c0.1-0.8,0.6-1.3,1.1-1.7c-0.3-0.4-0.6-0.9-0.8-1.3c-0.1-0.1-0.1-0.2-0.2-0.3c-0.1-0.1-0.3-0.7,0-1.1
				c0.1-0.1,0.1-0.2,0-0.7c-0.1-0.2-0.1-0.3-0.1-0.5c-0.1-0.8,0.4-1.2,0.6-1.4l0.1-0.1c0,0,0,0,0.1,0c-0.1-0.2-0.3-0.5-0.5-0.7
				c-0.9-0.7-1.1-2-0.5-2.9c0.1-0.2,0.3-0.3,0.5-0.3c0,0,0,0,0,0c0.2,0,0.4,0.1,0.5,0.3l1.1,1.8c0-0.1,0-0.3,0-0.4
				c0-0.2-0.1-0.4-0.2-0.5c-0.1,0-0.1,0-0.2-0.1c-0.1,0-0.2-0.1-0.2-0.2l-0.6-0.9c-0.2-0.3-0.1-0.6,0.1-0.8c0.4-0.3,0.8-0.4,1.2-0.4
				l0.2-0.6c0.1-0.3,0.3-0.4,0.5-0.5c-0.2-0.3-0.4-0.8,0-1.2c0.3-0.3,0.7-0.5,1-0.5c0.6-0.1,1,0.6,1.1,0.9c0.1,0.4,0.1,0.8,0.1,1.2
				c0,0.1,0,0.2,0,0.3c0.1-0.1,0.2-0.1,0.3-0.1c1.2-0.1,2.5,1,3.3,2.8c0.1,0.2,0,0.5-0.1,0.7c-0.2,0.2-0.5,0.2-0.7,0.1l-0.4-0.2
				c0,0,0,0,0,0c0.2,0.3,0.4,0.7,0.7,1c0.3,0.4,0.5,0.8,0.8,1.2c0.1,0.1,0.1,0.2,0.2,0.3c0,0.1,0.1,0.1,0.1,0.2l0,0.1
				c0.1,0.2,0.3,0.4,0.4,0.5c0.5,0.4,0.7,1,0.5,1.6c0.6,0.3,0.8,0.7,0.7,1.1l1,2.1c0,0.1,0.1,0.2,0.1,0.3c0,0,0,0,0,0
				c0.5,0.1,1.1,0.1,1.5,0.7c0.2,0.2,0.2,0.5,0.2,0.7l0.7,0.3l0.1-0.5c0-0.3,0.3-0.5,0.6-0.5c0.3,0,0.5,0.1,0.6,0.4l0.5,1.3
				c0,0.1,0,0.1,0,0.2l0,0.5c0,0.1,0,0.1,0,0.2c0.1,0.1,0.1,0.3,0.1,0.5l0.2,0.1c0.1,0.1,0.2,0.3,0.2,0.5c0,0.2-0.1,0.4-0.2,0.5
				l-0.1,0.1c-0.1,0.1-0.2,0.1-0.3,0.2l0,0c0,0,0,0-0.1,0c-0.1,0.3-0.3,0.6-0.6,0.8c0,0,0,0,0,0l0,0.3c0,0.2-0.1,0.3-0.3,0.5
				c-0.1,0-0.1,0.1-0.2,0.1c0,0,0.1,0.1,0.1,0.1c0.1,0.2,0.4,0.6,0.3,1c0.1,0.1,0.1,0.1,0.2,0.2c0.1,0.2,0.2,0.4,0.1,0.6
				c-0.1,0.2-0.2,0.3-0.4,0.3c-0.1,0.4-0.1,0.5,0.1,0.7c0.2,0.2,0.2,0.5,0,0.7c0,0,0,0,0,0c0,0,0.1,0.1,0.1,0.1
				c0.2,0.2,0.6,0.5,0.6,1c0,0.1,0,0.2,0.1,0.3c0.1,0.1,0.2,0.1,0.3,0.2c0.2,0.2,0.5,0.4,0.7,0.5c0.3,0.3,0.7,0.5,1,0.7
				c0.3,0.2,0.5,0.2,0.5,0.2l0,0c0,0,0.1-0.1,0.3-0.4c0.2-0.4,0.5-0.6,0.7-0.6c0.5-0.1,0.8,0.2,0.9,0.3c0.1,0.1,0.2,0.2,0.3,0.4
				c0,0,0.1,0.1,0.1,0.1c0.2-0.2,0.4-0.4,0.6-0.4c0.2-0.1,0.8-0.2,1,0.7c0,0,0,0.1,0,0.1c0.2,0.5,0.1,0.9,0,1.2c0,0,0.1,0.1,0.1,0.1
				c0.3,0.4,0.9,0.9,0.5,1.9c0,0.1-0.1,0.2-0.2,0.2c0,0,0,0.2,0.1,0.7c0.1,0.4,0.3,0.7,0.6,1c0.2,0.3,0.5,0.6,0.7,0.9
				c0,0,0,0.1,0.1,0.2l0,0c0.2,0.2,0.5,0.5,0.7,0.7l0.1,0.1c0,0,0.1,0.1,0.1,0.1c0.1,0.1,0.4,0.3,0.5,0.6c0.1,0.3,0.4,0.5,0.7,0.5
				c1,0,1.6,0.7,2,1.2l0.1,0.1c0.1,0.1,0.2,0.3,0.2,0.4c0.2,0.1,0.5,0.2,0.7,0.4c0.9,0.8,1.6,2.4,1.5,3.8c0,0.3-0.2,0.5-0.4,0.6
				c-0.2,0.1-0.4,0-0.5-0.1c0,0,0,0,0,0l-0.1,0.1c0.1,0.3,0,0.5-0.1,0.7c-0.2,0.3-0.6,0.4-1,0.4l-0.1,0c-1.1,0.1-2.1-0.3-3-0.7
				c-0.5,0.3-1.1,0-1.3-0.1c-0.2-0.1-0.4-0.2-0.5-0.1c-0.1,0.2-0.4,0.6-0.1,0.9l0.3,0.4c0.3,0.3,0.5,0.6,0.8,1
				c0.2,0.3,0.3,0.7,0.3,1.1c-0.1,0.4-0.3,0.8-0.7,1c-0.3,0.2-0.6,0.2-0.8,0.3c-0.2,0-0.3,0.1-0.3,0.1C214.8,54.9,214.6,55,214.4,55
				z M214,54.9C214,54.9,214,54.9,214,54.9C214,54.9,214,54.9,214,54.9z M211,52.7c0.1,0,0.2,0,0.3,0.1c1,0.5,1.9,0.9,2.8,0.9
				c0.1,0,0.1,0,0.2,0c0.3-0.2,0.6-0.2,0.8-0.3c0.1,0,0.3,0,0.3-0.1c0.1-0.1,0.1-0.1,0.1-0.2c0,0,0-0.1,0-0.1
				c-0.2-0.3-0.5-0.6-0.7-0.9l-0.3-0.4c-0.6-0.7-0.5-1.7,0.2-2.5c0.4-0.5,1.1-0.8,2.1-0.2c0,0,0.1,0,0.1,0.1c0.3-0.3,0.8-0.2,1-0.1
				c0.8,0.4,1.6,0.7,2.4,0.7c0-0.2,0-0.4,0.2-0.5c0,0,0-0.1-0.1-0.1c-0.4-0.5-0.8-1-0.9-1.7c0-0.2,0-0.4,0.2-0.5c0,0,0,0-0.1-0.1
				l-0.5-0.6c-0.1-0.2-0.2-0.4-0.1-0.6c0-0.1,0.1-0.3,0.1-0.4c0,0,0,0,0,0c-0.4-0.4-0.6-0.7-1-0.7c-0.8,0-1.5-0.5-1.8-1.3
				c0,0,0,0-0.1,0c-0.1-0.1-0.2-0.1-0.2-0.2l-0.1-0.1c-0.3-0.3-0.5-0.5-0.8-0.8c-0.1-0.1-0.2-0.3-0.2-0.4c0,0,0,0,0,0
				c-0.1-0.2-0.3-0.4-0.5-0.7c-0.4-0.4-0.8-0.9-0.9-1.6c-0.1-0.5-0.2-1.2,0.2-1.7c0-0.1,0-0.2-0.1-0.4l0,0c-0.2,0.1-0.5,0.1-0.7-0.1
				c-0.2-0.2-0.3-0.4-0.2-0.6c0-0.1,0-0.2,0.1-0.2c0,0-0.1,0-0.1,0c-0.2,0-0.3-0.2-0.4-0.3c-0.1-0.1-0.3-0.1-0.4-0.2
				c-0.1-0.1-0.3-0.3-0.3-0.4c-0.2,0.3-0.5,0.6-0.9,0.8c-0.6,0.2-1.1-0.1-1.5-0.4c-0.4-0.2-0.7-0.5-1.1-0.8
				c-0.2-0.2-0.5-0.4-0.7-0.5c-0.1-0.1-0.3-0.2-0.4-0.2c0,0-0.1,0-0.1-0.1c-0.2-0.1-0.3-0.2-0.3-0.4c0-0.1,0-0.2,0-0.2
				c0-0.2-0.1-0.3-0.1-0.5c0,0-0.1-0.1-0.2-0.1c-0.2-0.2-0.8-0.6-0.6-1.4c-0.2-0.5-0.2-1-0.1-1.4c0-0.1,0-0.3,0-0.4
				c0-0.1,0-0.2,0.1-0.3c0-0.1,0-0.2,0-0.3c0-0.1,0-0.1-0.1-0.3c-0.1-0.1-0.2-0.3-0.3-0.5c-0.1-0.2-0.2-0.4-0.2-0.7l-0.1-0.3
				c-0.1-0.2,0-0.5,0.1-0.6c0.2-0.2,0.4-0.2,0.6-0.2l0,0l0-0.1c0-0.2,0.1-0.4,0.3-0.5c0.1-0.1,0.2-0.1,0.4-0.1c0,0,0-0.1,0-0.1
				c0.1-0.2,0.2-0.3,0.3-0.4c-0.1-0.1-0.1-0.2-0.1-0.3c-0.2,0-0.4-0.2-0.5-0.4c0-0.1,0-0.3,0-0.4l-1.7-0.8c-0.2-0.1-0.3-0.3-0.3-0.5
				c0-0.1,0-0.2,0-0.3c0,0,0-0.1,0-0.1c-0.1-0.1-0.3-0.1-0.7-0.2c-0.2,0-0.3,0-0.5-0.1c-0.1,0-0.3,0.1-0.4,0.1
				c-0.1,0.1-0.2,0.1-0.4,0.1c0,0,0,0,0,0c-0.4,0.7-1,0.9-1.5,1.1l-0.2,0.1c-0.5,0.2-1.1-0.1-1.4-0.3c-0.5-0.3-0.3-1.2-0.2-1.4
				c0.1-0.2,0.2-0.4,0.3-0.5c0.1-0.1,0.1-0.2,0.2-0.2c0.1-0.2,0.2-0.5,0.3-0.7l0.1-0.3c0,0,0,0,0-0.1c0-0.2,0.1-0.6,0.5-0.7
				c0.3-0.1,0.7,0,1,0.3c0,0,0,0,0.1,0.1c0,0,0,0,0.1,0c0.1,0,0.1,0,0.2,0l-0.4-0.8c0-0.1-0.1-0.2-0.1-0.3c0,0,0,0,0,0
				c-0.2-0.1-0.6-0.3-0.7-0.7c-0.1-0.2-0.1-0.3,0-0.5c0.2-0.4,0.1-0.5-0.1-0.7c-0.2-0.2-0.4-0.5-0.6-0.7l0-0.1
				c-0.1-0.1-0.1-0.3-0.2-0.4c0-0.1-0.1-0.1-0.1-0.2c-0.2-0.4-0.5-0.8-0.8-1.2c-0.4-0.7-0.9-1.4-1.3-2.1c-0.1-0.2-0.2-0.5-0.2-0.7
				c0,0,0,0,0,0c-0.1,0-0.2-0.1-0.3-0.1l-1.3-1.1c-0.1-0.1-0.2-0.2-0.2-0.3l-0.1,0l-0.2,0.9c0,0.2-0.2,0.3-0.3,0.4
				c0,0,0.1,0.1,0.1,0.2c0.1,0.3,0.3,0.7,0.4,1.1c0.1,0.6,0.1,1.1,0.1,1.7c0,0.2-0.1,0.4-0.1,0.6c0,0.1,0,0.1,0,0.2
				c-0.1,0.3-0.3,0.4-0.5,0.5l0,0c0,0,0,0,0,0c0.1,0.2,0,0.5-0.1,0.7c-0.2,0.2-0.4,0.2-0.7,0.1c-0.1,0-0.2-0.1-0.3-0.1c0,0,0,0,0,0
				c0,0,0,0,0,0c0,0,0,0,0,0.1c0,0.1,0.1,0.2,0.1,0.3c0.1,0.4,0.3,1-0.1,1.7c0.1,0.1,0.1,0.2,0.2,0.4c0.2,0.4,0.4,0.8,0.6,1.1
				c0.5,0.6,0.4,1.2-0.2,1.7c-0.6,0.5-0.7,0.8-0.7,1.2c0,0.3-0.2,0.6-0.3,0.7c-0.1,0.1-0.2,0.2-0.3,0.2c0,0.3,0,0.6,0,0.7
				c0,0.1,0,0.1,0,0.2l0,0.5c0,0.6-0.1,1.2-0.1,1.7c-0.1,0.4-0.3,0.9-0.6,1.1c-0.2,0.2-0.5,0.3-0.7,0.4c-0.1,0-0.2,0.1-0.3,0.1
				c-1,0.5-2.1,0.1-2.6-0.8c-0.1-0.1-0.2-0.2-0.2-0.2c-0.3-0.1-0.7-0.2-1-0.4c0,0,0,0,0,0c0,0.1-0.1,0.1-0.1,0.2l-0.1,0.1
				c-0.1,0.2-0.3,0.4-0.5,0.5c-0.1,0-0.1,0.1,0,0.3c0.1,0.2,0.2,0.4,0.2,0.6c0.1,0.1,0.1,0.3,0.2,0.4c0.1,0.2,0.4,1,0,1.6
				c-0.4,0.6-1.3,0.6-1.5,0.6c-0.6,0-1.2,0.1-1.7,0.3c-0.3,0.1-0.6,0.4-0.6,0.7c0,0.8,0,1.5,0.2,2.1c0.1,0.5,0.5,1.1,0.8,1
				c0.2,0,0.4,0.1,0.5,0.2c0.1,0.1,0.2,0.3,0.2,0.5c0,0,0,0,0,0.1c0.1,0.1,0.2,0.3,0.2,0.4c0,0.1,0,0.1,0.1,0.1
				c0.1,0.2,0.3,0.4,0.4,0.5c0.1,0.1,0.2,0.3,0.4,0.4c0,0,0,0,0.1,0.1c0,0,0,0,0,0c0.2-0.2,0.5-0.2,0.7-0.1c0.2,0.1,0.4,0.4,0.4,0.6
				l0,0.2l0.2,0c0.3,0.1,0.5,0.3,0.5,0.6c0,0.1,0,0.2,0,0.3c0,0,0,0,0,0c0.2,0.1,0.3,0.3,0.5,0.4c0.1,0.1,0.2,0.2,0.3,0.3
				c0.1,0.1,0.2,0.2,0.3,0.3c0,0,0,0,0,0.1c0,0,0,0,0.1,0c0.2-0.1,0.3,0,0.5,0c0.1,0.1,0.3,0.2,0.3,0.4c0,0.1,0.1,0.2,0.1,0.2
				c0-0.1,0.1-0.1,0.2-0.2c0.2-0.2,0.5-0.3,0.8-0.1l1.2,0.8c0,0,0,0,0,0c0.2-0.1,0.4-0.1,0.5,0c0.2,0.1,0.3,0.2,0.5,0.3
				c0.4,0.2,0.7,0.4,1.1,0.4c0.3,0,0.6,0,0.9,0.1c0.2,0,0.3,0.1,0.5,0.1c0,0,0.1,0,0.2-0.1c0.1-0.1,0.1-0.1,0.2-0.2
				c0.1-0.1,0.2-0.2,0.3-0.3c-0.2-0.2-0.2-0.4-0.2-0.6c0.1-0.2,0.3-0.4,0.5-0.4l0,0c0.4,0,0.8-0.1,1.2,0.1c0.3,0.1,0.7,0.3,1,0.4
				c0.2,0.1,0.4,0.2,0.7,0.3c0.2,0.1,0.3,0.1,0.5,0.2c-0.1-0.1-0.1-0.1-0.1-0.2c-0.2-0.4-0.2-0.8,0.1-1.2c0.3-0.5,0.7-0.9,1-1.3
				c0.2-0.2,0.4-0.3,0.5-0.4c0,0,0.1-0.1,0.1-0.1c0.1-0.1,0.3-0.1,0.5-0.1c0.2,0,0.3,0.1,0.4,0.3c0,0.1,0.1,0.1,0.1,0.2
				c0.2,0.2,0.4,0.5,0.4,0.8c0.1,0.5,0,1.1,0,1.6l0,0.2c0,0.1,0,0.1,0,0.2c0,0.3,0,0.8-0.3,1.1c-0.3,0.4-0.3,0.6-0.2,1
				c0.2,0.6,0.3,1.1,0.3,1.7c0,0.1,0,0.3,0,0.4c0.1,0.4-0.3,0.8-0.5,1c-0.2,0.1-0.3,0.2-0.4,0.2c-0.1,0-0.2,0.1-0.2,0.1
				c0,0-0.1,0-0.1,0.1c0,0,0,0,0.1,0.1c0,0,0,0,0.1,0c0.1,0,0.1,0.1,0.2,0.1c0.1,0.1,0.3,0.1,0.4,0.2c0.4,0.2,0.7,0.3,1.1,0.6
				c0.2,0.1,0.3,0.3,0.5,0.5c0.2,0.2,0.2,0.2,0.3,0.2c0.3,0,0.6,0.2,0.7,0.4c0,0,0.1,0,0.1-0.1c0.2-0.1,0.5-0.3,0.9-0.3
				c1.3,0,2.4,0.6,3.1,1.9c0.1,0.2,0.2,0.5,0.1,0.8c0.1,0,0.2,0,0.3,0l0.1,0c0.4,0,0.9,0.4,1.1,0.8C210.9,52.7,210.9,52.7,211,52.7z
				 M204,50.2C204,50.2,204,50.2,204,50.2C204,50.2,204,50.2,204,50.2z M204.9,49.6L204.9,49.6L204.9,49.6z M219.3,45.5
				C219.3,45.5,219.3,45.5,219.3,45.5L219.3,45.5z M201.4,42.9C201.4,42.9,201.4,42.9,201.4,42.9C201.4,42.9,201.4,42.9,201.4,42.9z
				 M201,42.2C201,42.2,201,42.2,201,42.2C201,42.2,201,42.2,201,42.2z M196.3,42L196.3,42L196.3,42z M201.1,40.9
				c0.3,0,0.6,0.2,0.7,0.3c0-0.4,0-0.8,0-1.2C201.6,40.3,201.3,40.6,201.1,40.9z M216,41.3C216,41.3,216,41.3,216,41.3
				C216,41.3,216,41.3,216,41.3z M188.9,40.9L188.9,40.9L188.9,40.9z M185.7,38L185.7,38C185.7,38,185.7,38,185.7,38z M207.6,26.4
				L207.6,26.4L207.6,26.4z M207.6,26.3C207.6,26.3,207.6,26.3,207.6,26.3C207.6,26.3,207.6,26.3,207.6,26.3z M202.1,22.6
				L202.1,22.6L202.1,22.6z M200.1,22.6C200.1,22.6,200.1,22.6,200.1,22.6l0.1,0c0.5-0.2,0.8-0.3,0.9-0.6c0.1-0.3,0.5-0.4,0.6-0.5
				c0-0.1-0.1-0.1-0.1-0.2c-0.3,0.1-0.6,0.1-0.9-0.1c-0.1,0.3-0.2,0.5-0.3,0.8c-0.1,0.2-0.2,0.3-0.3,0.5
				C200.2,22.5,200.1,22.5,200.1,22.6z M200.4,20.8C200.4,20.8,200.4,20.8,200.4,20.8C200.4,20.8,200.4,20.8,200.4,20.8z
				 M193.7,16.1L193.7,16.1C193.7,16.1,193.7,16.1,193.7,16.1z"/>
		</g>
	</g>
</g>
</svg>
